<svg width="30" height="31" viewBox="0 0 30 31" fill="none" xmlns="http://www.w3.org/2000/svg">
<path d="M4.1911 11.7688C5.00547 8.38167 7.71626 5.73699 11.188 4.94248C13.6953 4.3687 16.3047 4.3687 18.812 4.94248C22.2837 5.73699 24.9945 8.38167 25.8089 11.7688C26.397 14.2149 26.397 16.7606 25.8089 19.2067C24.9945 22.5938 22.2837 25.2385 18.812 26.033C16.3047 26.6068 13.6953 26.6068 11.188 26.033C7.71626 25.2385 5.00547 22.5939 4.1911 19.2067C3.60297 16.7606 3.60297 14.2149 4.1911 11.7688Z" stroke="white" stroke-width="1.5"/>
<path d="M15 11.2195L15 19.7561M15 19.7561L18.125 16.7073M15 19.7561L11.875 16.7073" stroke="white" stroke-width="1.5" stroke-linecap="round" stroke-linejoin="round"/>
</svg>
