<svg width="30" height="31" viewBox="0 0 30 31" fill="none" xmlns="http://www.w3.org/2000/svg">
<path d="M3.88803 8.60475C3.47382 8.60475 3.13803 8.94053 3.13803 9.35475C3.13803 9.76896 3.47382 10.1047 3.88803 10.1047V8.60475ZM26.1119 10.1047C26.5262 10.1047 26.8619 9.76896 26.8619 9.35475C26.8619 8.94053 26.5262 8.60475 26.1119 8.60475V10.1047ZM6.35736 9.35475V8.60475H5.60736V9.35475H6.35736ZM23.6426 9.35475H24.3926V8.60475H23.6426V9.35475ZM22.83 21.4516L23.5506 21.6596L22.83 21.4516ZM17.1285 26.4212L17.2535 27.1607L17.2535 27.1607L17.1285 26.4212ZM12.8714 26.4212L12.9964 25.6817L12.9964 25.6817L12.8714 26.4212ZM12.6767 26.3883L12.5517 27.1278L12.5517 27.1278L12.6767 26.3883ZM7.16995 21.4516L6.44937 21.6596L7.16995 21.4516ZM17.3233 26.3883L17.1983 25.6487L17.1983 25.6487L17.3233 26.3883ZM9.86693 7.44941L10.5477 7.76408L10.5477 7.76408L9.86693 7.44941ZM11.0713 5.83414L10.5708 5.27559L10.5708 5.27559L11.0713 5.83414ZM12.8738 4.75485L13.1348 5.45797L13.1348 5.45797L12.8738 4.75485ZM17.1262 4.75485L17.3872 4.05173L17.3872 4.05173L17.1262 4.75485ZM20.133 7.44941L20.8138 7.13473L20.8138 7.13473L20.133 7.44941ZM3.88803 10.1047H26.1119V8.60475H3.88803V10.1047ZM17.1983 25.6487L17.0035 25.6817L17.2535 27.1607L17.4483 27.1278L17.1983 25.6487ZM12.9964 25.6817L12.8016 25.6487L12.5517 27.1278L12.7465 27.1607L12.9964 25.6817ZM22.8926 9.35475V15.7049H24.3926V9.35475H22.8926ZM7.10736 15.7049V9.35475H5.60736V15.7049H7.10736ZM22.8926 15.7049C22.8926 17.5792 22.6289 19.444 22.1094 21.2436L23.5506 21.6596C24.1091 19.7248 24.3926 17.7199 24.3926 15.7049H22.8926ZM17.0035 25.6817C15.6771 25.9058 14.3229 25.9058 12.9964 25.6817L12.7465 27.1607C14.2384 27.4128 15.7615 27.4128 17.2535 27.1607L17.0035 25.6817ZM12.8017 25.6487C10.465 25.2539 8.55464 23.5442 7.89052 21.2436L6.44937 21.6596C7.27185 24.5088 9.64146 26.636 12.5517 27.1278L12.8017 25.6487ZM7.89052 21.2436C7.37105 19.444 7.10736 17.5792 7.10736 15.7049H5.60736C5.60736 17.7199 5.89084 19.7247 6.44937 21.6596L7.89052 21.2436ZM17.4483 27.1278C20.3585 26.636 22.7281 24.5088 23.5506 21.6596L22.1094 21.2436C21.4453 23.5442 19.5349 25.2539 17.1983 25.6487L17.4483 27.1278ZM10.194 9.35474C10.194 8.81155 10.3133 8.27132 10.5477 7.76408L9.18614 7.13473C8.86217 7.83562 8.69401 8.59026 8.69401 9.35474H10.194ZM10.5477 7.76408C10.7823 7.25654 11.1288 6.7897 11.5718 6.39268L10.5708 5.27559C9.98199 5.80324 9.50997 6.43414 9.18614 7.13473L10.5477 7.76408ZM11.5718 6.39268C12.015 5.99552 12.5455 5.67671 13.1348 5.45797L12.6128 4.05173C11.8539 4.33342 11.1594 4.74809 10.5708 5.27559L11.5718 6.39268ZM13.1348 5.45797C13.7241 5.23923 14.3581 5.12585 15 5.12585V3.62585C14.1826 3.62585 13.3717 3.77005 12.6128 4.05173L13.1348 5.45797ZM15 5.12585C15.6419 5.12585 16.2759 5.23923 16.8652 5.45797L17.3872 4.05173C16.6283 3.77005 15.8174 3.62585 15 3.62585V5.12585ZM16.8652 5.45797C17.4545 5.67671 17.9849 5.99552 18.4281 6.39268L19.4292 5.27559C18.8405 4.74809 18.1461 4.33342 17.3872 4.05173L16.8652 5.45797ZM18.4281 6.39268C18.8712 6.7897 19.2177 7.25654 19.4523 7.76408L20.8138 7.13473C20.49 6.43414 20.018 5.80324 19.4292 5.27559L18.4281 6.39268ZM19.4523 7.76408C19.6867 8.27132 19.806 8.81155 19.806 9.35475H21.306C21.306 8.59026 21.1378 7.83563 20.8138 7.13473L19.4523 7.76408ZM6.35736 10.1047H23.6426V8.60475H6.35736V10.1047Z" fill="white"/>
<path d="M12.5307 15.4878V20.4264M17.4693 15.4878V20.4264" stroke="white" stroke-width="1.5" stroke-linecap="round"/>
</svg>
